<svg preserveAspectRatio="none" width="100%" height="100%" overflow="visible" style="display: block;" viewBox="0 0 32 25.1436" fill="none" xmlns="http://www.w3.org/2000/svg">
<g id="Group 26">
<path id="Vector" fill-rule="evenodd" clip-rule="evenodd" d="M15.624 8.94551C15.8316 8.73789 16.1684 8.73789 16.376 8.94551L19.6264 12.1958C19.834 12.4034 19.834 12.7403 19.6264 12.9479L16.376 16.1981C16.1683 16.4058 15.8316 16.4058 15.624 16.1981L12.3736 12.9479C12.166 12.7403 12.166 12.4034 12.3736 12.1958L15.624 8.94551Z" fill="#B6E835"/>
<g id="Group">
<path id="Vector_2" d="M6.62646 12.5722C6.62645 12.5721 6.62647 12.572 6.62646 12.5719C6.62647 12.5717 6.62646 12.5716 6.62648 12.5715C6.60542 12.2744 6.70328 11.9699 6.92172 11.7428L15.3694 2.95737L12.8546 0.341989C12.4162 -0.113834 11.7055 -0.113834 11.2672 0.341989L0.357936 11.6871C0.122759 11.9316 0.00388312 12.251 3.06367e-05 12.5715C3.06367e-05 12.5716 2.29775e-05 12.5717 2.29775e-05 12.5719C2.29775e-05 12.572 0 12.5721 0 12.5722C0.00386503 12.8928 0.122759 13.2121 0.357936 13.4567L11.2672 24.8017C11.7055 25.2576 12.4162 25.2576 12.8546 24.8017L15.3694 22.1864L6.92172 13.401C6.70329 13.1738 6.6054 12.8693 6.62646 12.5722Z" fill="#B6E835"/>
<path id="Vector_3" d="M25.3735 12.5715C25.3735 12.5716 25.3735 12.5717 25.3735 12.5718C25.3735 12.5719 25.3735 12.5721 25.3735 12.5722C25.3946 12.8693 25.2967 13.1737 25.0783 13.4009L16.6306 22.1863L19.1454 24.8017C19.5838 25.2575 20.2945 25.2575 20.7328 24.8017L31.642 13.4566C31.8772 13.212 31.9961 12.8927 32 12.5722C32 12.5721 32 12.572 32 12.5718C32 12.5717 32 12.5716 32 12.5715C31.9961 12.2509 31.8772 11.9316 31.642 11.687L20.7328 0.34195C20.2945 -0.113873 19.5838 -0.113873 19.1454 0.34195L16.6306 2.95733L25.0783 11.7427C25.2967 11.9699 25.3946 12.2744 25.3735 12.5715Z" fill="#B6E835"/>
</g>
</g>
</svg>
