<svg preserveAspectRatio="none" width="100%" height="100%" overflow="visible" style="display: block;" viewBox="0 0 28 28.0004" fill="none" xmlns="http://www.w3.org/2000/svg">
<g id="Group">
<path id="Vector" d="M13.2305 9.75962C13.3273 9.57695 13.5172 9.46267 13.724 9.46267H14.2761C14.4829 9.46267 14.6727 9.57684 14.7695 9.75962L14.9679 10.134C15.622 11.3681 16.6313 12.3777 17.8653 13.0321L18.2406 13.2311C18.4233 13.328 18.5375 13.5178 18.5375 13.7245V14.2755C18.5375 14.4823 18.4233 14.6721 18.2408 14.769L17.8653 14.9682C16.6313 15.6226 15.622 16.6321 14.968 17.8661L14.7695 18.2407C14.6726 18.4234 14.4828 18.5377 14.276 18.5377H13.724C13.5173 18.5377 13.3274 18.4234 13.2306 18.2407L13.032 17.8661C12.3779 16.6321 11.3688 15.6226 10.1349 14.9682L9.7593 14.769C9.57674 14.672 9.46249 14.4823 9.46249 14.2755V13.7246C9.46249 13.5179 9.57674 13.3281 9.75942 13.2312L10.1349 13.0321C11.3688 12.3777 12.3779 11.3681 13.032 10.134L13.2305 9.75962Z" fill="#B6E835"/>
<g id="Group_2">
<path id="Vector_2" d="M13.9993 25.4967C15.8909 24.2971 17.9852 22.6039 20.2868 20.2863C22.6037 17.9855 24.2966 15.8917 25.4961 14.0005C29.3264 20.0402 28.1212 24.0166 26.1128 26.0952L26.1133 26.0958C26.1103 26.0987 26.107 26.1017 26.104 26.1047C26.101 26.1077 26.098 26.1109 26.0951 26.114L26.0946 26.1136C24.0159 28.1219 20.0393 29.3273 13.9993 25.4967Z" fill="#B6E835"/>
<path id="Vector_3" d="M14.0124 2.51209C14.0063 2.50821 14.0065 2.49931 14.0126 2.49544C20.0455 -1.32531 24.0178 -0.120258 26.0951 1.88669L26.0956 1.88621C26.0985 1.88926 26.1015 1.89253 26.1045 1.89559C26.1075 1.89856 26.1107 1.9015 26.1138 1.90449L26.1134 1.90494C28.1217 3.98368 29.3271 7.96036 25.4961 14.0006C24.2967 12.1091 22.6036 10.0151 20.2863 7.71395C17.9902 5.40189 15.9005 3.71114 14.0124 2.51209Z" fill="#B6E835"/>
<path id="Vector_4" d="M2.50315 14.0005C3.70267 15.8919 5.39596 17.9858 7.71322 20.2871C10.0143 22.6041 12.1079 24.2973 13.9993 25.4968C7.95999 29.3264 3.98385 28.1211 1.90536 26.1129L1.90482 26.1134C1.90182 26.1104 1.89897 26.107 1.89599 26.104C1.89292 26.101 1.8896 26.0982 1.88654 26.0951L1.88709 26.0946C-0.121149 24.016 -1.32657 20.0399 2.50315 14.0005Z" fill="#B6E835"/>
<path id="Vector_5" d="M1.90506 1.88761C3.98222 -0.119304 7.95449 -1.3244 13.9872 2.49627C13.9928 2.49981 13.9931 2.508 13.9875 2.51157C12.0994 3.71057 10.0098 5.40139 7.71366 7.71341C5.39617 10.0149 3.70276 12.1091 2.50324 14.0007C-1.32702 7.96087 -0.121534 3.98451 1.88678 1.90589L1.88624 1.90534C1.88929 1.90234 1.89253 1.8994 1.89561 1.89644C1.89858 1.89337 1.90151 1.89013 1.90451 1.88708L1.90506 1.88761Z" fill="#B6E835"/>
</g>
</g>
</svg>
