<svg preserveAspectRatio="none" width="100%" height="100%" overflow="visible" style="display: block;" viewBox="0 0 29 27.5958" fill="none" xmlns="http://www.w3.org/2000/svg">
<path id="Vector" d="M26.7693 7.9886C28.0013 7.9886 29 8.98726 29 10.2193V25.3651C29 26.5971 28.0012 27.5958 26.7693 27.5958H5.80072C4.75352 27.5958 3.90463 26.7469 3.90463 25.6997V23.6689L3.90351 23.6678V21.7722H7.13434V12.8495C7.13434 11.9871 7.83343 11.288 8.69583 11.288H26.1088V7.98864L26.7693 7.9886ZM24.5474 0C25.4097 0 26.1088 0.699113 26.1088 1.56149L26.1088 7.98864L17.2792 7.9886C16.5289 7.9886 15.829 7.61139 15.4163 6.98479L14.1675 4.90748C13.7549 4.28088 13.0548 3.90367 12.3045 3.90367H6.13421C4.9022 3.90367 3.90351 4.90235 3.90351 6.13439V21.7722L1.56149 21.7721C0.699113 21.7721 1.44821e-05 21.073 0 20.2106V1.56146C0 0.699078 0.699099 0 1.56149 0H24.5474Z" fill="#B6E835"/>
</svg>
